<svg width="512" height="512" viewBox="0 0 512 512" fill="none" xmlns="http://www.w3.org/2000/svg">
  <defs>
    <linearGradient id="bgGlow" x1="88" y1="64" x2="424" y2="448" gradientUnits="userSpaceOnUse">
      <stop stop-color="#FFFFFF"/>
      <stop offset="1" stop-color="#F6F2FF"/>
    </linearGradient>
    <linearGradient id="ringGrad" x1="118" y1="430" x2="407" y2="113" gradientUnits="userSpaceOnUse">
      <stop stop-color="#4F1FD8"/>
      <stop offset="0.5" stop-color="#9158F6"/>
      <stop offset="1" stop-color="#E39EFF"/>
    </linearGradient>
    <linearGradient id="handGrad" x1="206" y1="315" x2="334" y2="205" gradientUnits="userSpaceOnUse">
      <stop stop-color="#4620B8"/>
      <stop offset="1" stop-color="#24136C"/>
    </linearGradient>
    <filter id="softGlow" x="0" y="0" width="512" height="512" filterUnits="userSpaceOnUse" color-interpolation-filters="sRGB">
      <feGaussianBlur stdDeviation="18"/>
    </filter>
  </defs>

  <rect x="16" y="16" width="480" height="480" rx="72" fill="url(#bgGlow)"/>

  <g opacity="0.35" filter="url(#softGlow)">
    <rect x="62" y="62" width="388" height="388" rx="64" fill="#EDE5FF"/>
  </g>

  <g fill="url(#ringGrad)">
    <path d="M154 385C118 345 99 293 99 237C99 175 123 117 166 74L206 112C174 145 156 189 156 237C156 280 168 320 192 353L154 385Z"/>
    <rect x="160" y="113" width="37" height="84" rx="18.5" transform="rotate(-35 160 113)"/>
    <rect x="216" y="80" width="39" height="84" rx="19.5" transform="rotate(-12 216 80)"/>
    <rect x="284" y="80" width="39" height="84" rx="19.5" transform="rotate(2 284 80)"/>
    <path d="M324 78C384 92 434 134 457 197L402 214C388 175 359 145 323 133L324 78Z"/>
    <path d="M398 164C418 193 429 228 429 266C429 344 383 414 311 446C259 469 198 468 146 443L168 421C210 430 253 425 291 408C345 384 380 329 380 266C380 239 374 214 362 191L398 164Z"/>
    <path d="M260 366C212 363 169 338 139 299L176 271C194 297 222 315 254 319L260 366Z"/>
    <path d="M371 118L452 161C462 166 463 180 454 187L402 228C390 237 373 228 373 212V118H371Z"/>
  </g>

  <g stroke="url(#handGrad)" stroke-linecap="round">
    <line x1="256" y1="259" x2="205" y2="217" stroke-width="23"/>
    <line x1="256" y1="259" x2="329" y2="184" stroke-width="23"/>
  </g>
  <circle cx="256" cy="259" r="26" fill="url(#handGrad)"/>
</svg>
